<svg id="Layer_1" data-name="Layer 1" xmlns="http://www.w3.org/2000/svg" viewBox="0 0 1975.42 871.14"><defs><style>.cls-1{fill:#006ebb;}.cls-2{fill:#fff;opacity:0.08;isolation:isolate;}</style></defs><title>Artboard 3</title><g id="Group_1349" data-name="Group 1349"><path id="Path_8412" data-name="Path 8412" class="cls-1" d="M0,173.14s223.5-133,666-154,946.5,53,1228,98,183.28-37.78,183.28-37.78L2086,871.14H0Z"/><path id="Path_8413" data-name="Path 8413" class="cls-2" d="M1088-71.86c174,192.14,32.91,179.19-88,378S598.37,801.36,598.37,801.36a59,59,0,0,1-83,8.73h0l-749.95-607.3a59,59,0,0,1-8.72-83"/><g id="Group_1350" data-name="Group 1350"><path id="Path_8414" data-name="Path 8414" class="cls-2" d="M1781.3,1207.73,1366.44,871.79a59,59,0,0,1-8.72-83h0S1451.16,426.7,1588,281.14s321.24-123.18,588,10c83.61,41.74,161.86,108.66,229.91,180.88"/></g></g></svg>